<mxfile host="app.diagrams.net" agent="Mozilla/5.0 (Windows NT 10.0; Win64; x64) AppleWebKit/537.36 (KHTML, like Gecko) Chrome/130.0.0.0 Safari/537.36" version="24.8.4">
  <diagram name="SessionMapping" id="v43Xx_EDsvY6eAHWIbAX">
    <mxGraphModel dx="478" dy="623" grid="1" gridSize="10" guides="1" tooltips="1" connect="1" arrows="1" fold="1" page="1" pageScale="1" pageWidth="827" pageHeight="1169" math="0" shadow="0">
      <root>
        <mxCell id="0" />
        <mxCell id="1" parent="0" />
        <mxCell id="nzL9g1eNjnsppFl03VkQ-4" value="" style="rounded=0;whiteSpace=wrap;html=1;" vertex="1" parent="1">
          <mxGeometry x="40" y="40" width="60" height="30" as="geometry" />
        </mxCell>
        <mxCell id="nzL9g1eNjnsppFl03VkQ-5" value=":Interface" style="text;html=1;align=center;verticalAlign=middle;whiteSpace=wrap;rounded=0;" vertex="1" parent="1">
          <mxGeometry x="40" y="40" width="60" height="30" as="geometry" />
        </mxCell>
        <mxCell id="nzL9g1eNjnsppFl03VkQ-6" value="" style="endArrow=none;dashed=1;html=1;rounded=0;" edge="1" parent="1">
          <mxGeometry width="50" height="50" relative="1" as="geometry">
            <mxPoint x="70" y="480" as="sourcePoint" />
            <mxPoint x="70" y="70" as="targetPoint" />
          </mxGeometry>
        </mxCell>
        <mxCell id="nzL9g1eNjnsppFl03VkQ-7" value="" style="rounded=0;whiteSpace=wrap;html=1;" vertex="1" parent="1">
          <mxGeometry x="60" y="120" width="20" height="320" as="geometry" />
        </mxCell>
        <mxCell id="nzL9g1eNjnsppFl03VkQ-8" value="" style="endArrow=classic;html=1;rounded=0;startArrow=oval;startFill=1;" edge="1" parent="1">
          <mxGeometry width="50" height="50" relative="1" as="geometry">
            <mxPoint x="20" y="120" as="sourcePoint" />
            <mxPoint x="60" y="120" as="targetPoint" />
          </mxGeometry>
        </mxCell>
        <mxCell id="nzL9g1eNjnsppFl03VkQ-11" value="" style="endArrow=classic;html=1;rounded=0;entryX=0;entryY=0;entryDx=0;entryDy=0;" edge="1" parent="1" target="nzL9g1eNjnsppFl03VkQ-26">
          <mxGeometry width="50" height="50" relative="1" as="geometry">
            <mxPoint x="80" y="160" as="sourcePoint" />
            <mxPoint x="130" y="160" as="targetPoint" />
          </mxGeometry>
        </mxCell>
        <mxCell id="nzL9g1eNjnsppFl03VkQ-15" value="" style="rounded=0;whiteSpace=wrap;html=1;" vertex="1" parent="1">
          <mxGeometry x="140" y="40" width="110" height="30" as="geometry" />
        </mxCell>
        <mxCell id="nzL9g1eNjnsppFl03VkQ-16" value=":ServerApplication" style="text;html=1;align=center;verticalAlign=middle;whiteSpace=wrap;rounded=0;" vertex="1" parent="1">
          <mxGeometry x="140" y="40" width="110" height="30" as="geometry" />
        </mxCell>
        <mxCell id="nzL9g1eNjnsppFl03VkQ-18" value="" style="endArrow=none;dashed=1;html=1;rounded=0;" edge="1" parent="1" source="nzL9g1eNjnsppFl03VkQ-26">
          <mxGeometry width="50" height="50" relative="1" as="geometry">
            <mxPoint x="195" y="480" as="sourcePoint" />
            <mxPoint x="194.67000000000002" y="70" as="targetPoint" />
          </mxGeometry>
        </mxCell>
        <mxCell id="nzL9g1eNjnsppFl03VkQ-19" value="" style="endArrow=classic;html=1;rounded=0;dashed=1;exitX=0;exitY=1;exitDx=0;exitDy=0;" edge="1" parent="1" source="nzL9g1eNjnsppFl03VkQ-26">
          <mxGeometry width="50" height="50" relative="1" as="geometry">
            <mxPoint x="130" y="420" as="sourcePoint" />
            <mxPoint x="80" y="420" as="targetPoint" />
          </mxGeometry>
        </mxCell>
        <mxCell id="nzL9g1eNjnsppFl03VkQ-21" value="" style="endArrow=classic;html=1;rounded=0;dashed=1;" edge="1" parent="1" source="nzL9g1eNjnsppFl03VkQ-20">
          <mxGeometry width="50" height="50" relative="1" as="geometry">
            <mxPoint x="60" y="440" as="sourcePoint" />
            <mxPoint x="20" y="440" as="targetPoint" />
          </mxGeometry>
        </mxCell>
        <mxCell id="nzL9g1eNjnsppFl03VkQ-25" value="" style="endArrow=classic;html=1;rounded=0;dashed=1;" edge="1" parent="1" target="nzL9g1eNjnsppFl03VkQ-20">
          <mxGeometry width="50" height="50" relative="1" as="geometry">
            <mxPoint x="60" y="440" as="sourcePoint" />
            <mxPoint x="20" y="440" as="targetPoint" />
          </mxGeometry>
        </mxCell>
        <mxCell id="nzL9g1eNjnsppFl03VkQ-20" value="" style="shape=waypoint;sketch=0;fillStyle=solid;size=6;pointerEvents=1;points=[];fillColor=none;resizable=0;rotatable=0;perimeter=centerPerimeter;snapToPoint=1;strokeWidth=2;" vertex="1" parent="1">
          <mxGeometry x="10" y="430" width="20" height="20" as="geometry" />
        </mxCell>
        <mxCell id="nzL9g1eNjnsppFl03VkQ-27" value="" style="endArrow=none;dashed=1;html=1;rounded=0;" edge="1" parent="1" target="nzL9g1eNjnsppFl03VkQ-26">
          <mxGeometry width="50" height="50" relative="1" as="geometry">
            <mxPoint x="195" y="480" as="sourcePoint" />
            <mxPoint x="194.67000000000002" y="70" as="targetPoint" />
          </mxGeometry>
        </mxCell>
        <mxCell id="nzL9g1eNjnsppFl03VkQ-26" value="" style="rounded=0;whiteSpace=wrap;html=1;" vertex="1" parent="1">
          <mxGeometry x="185" y="160" width="20" height="260" as="geometry" />
        </mxCell>
        <mxCell id="nzL9g1eNjnsppFl03VkQ-28" value="&lt;font style=&quot;font-size: 10px;&quot;&gt;SessionCheck(movieId, startDate, endDate)&lt;/font&gt;" style="text;html=1;align=center;verticalAlign=middle;whiteSpace=wrap;rounded=0;" vertex="1" parent="1">
          <mxGeometry x="70" y="130" width="130" height="30" as="geometry" />
        </mxCell>
        <mxCell id="nzL9g1eNjnsppFl03VkQ-29" value="" style="rounded=0;whiteSpace=wrap;html=1;" vertex="1" parent="1">
          <mxGeometry x="294" y="40" width="126" height="30" as="geometry" />
        </mxCell>
        <mxCell id="nzL9g1eNjnsppFl03VkQ-30" value="session:MovieSession" style="text;html=1;align=center;verticalAlign=middle;whiteSpace=wrap;rounded=0;" vertex="1" parent="1">
          <mxGeometry x="294" y="40" width="126" height="30" as="geometry" />
        </mxCell>
        <mxCell id="nzL9g1eNjnsppFl03VkQ-31" value="" style="endArrow=none;dashed=1;html=1;rounded=0;" edge="1" parent="1">
          <mxGeometry width="50" height="50" relative="1" as="geometry">
            <mxPoint x="360" y="480" as="sourcePoint" />
            <mxPoint x="356.67" y="70" as="targetPoint" />
          </mxGeometry>
        </mxCell>
        <mxCell id="nzL9g1eNjnsppFl03VkQ-33" value="&lt;font style=&quot;font-size: 12px;&quot;&gt;opt [member = true]&lt;/font&gt;" style="shape=umlFrame;whiteSpace=wrap;html=1;pointerEvents=0;width=143;height=25;" vertex="1" parent="1">
          <mxGeometry x="167.5" y="240" width="222.5" height="125" as="geometry" />
        </mxCell>
        <mxCell id="nzL9g1eNjnsppFl03VkQ-34" value="" style="endArrow=classic;html=1;rounded=0;" edge="1" parent="1">
          <mxGeometry width="50" height="50" relative="1" as="geometry">
            <mxPoint x="205" y="170" as="sourcePoint" />
            <mxPoint x="360" y="170" as="targetPoint" />
          </mxGeometry>
        </mxCell>
        <mxCell id="nzL9g1eNjnsppFl03VkQ-35" value="filterSessions(MovieID, startDate, endDate)" style="text;html=1;align=center;verticalAlign=middle;whiteSpace=wrap;rounded=0;" vertex="1" parent="1">
          <mxGeometry x="210" y="140" width="145" height="30" as="geometry" />
        </mxCell>
        <mxCell id="nzL9g1eNjnsppFl03VkQ-37" value="" style="endArrow=classic;html=1;rounded=0;dashed=1;" edge="1" parent="1">
          <mxGeometry width="50" height="50" relative="1" as="geometry">
            <mxPoint x="360" y="190" as="sourcePoint" />
            <mxPoint x="205" y="190" as="targetPoint" />
          </mxGeometry>
        </mxCell>
        <mxCell id="nzL9g1eNjnsppFl03VkQ-38" value="member" style="text;html=1;align=center;verticalAlign=middle;whiteSpace=wrap;rounded=0;" vertex="1" parent="1">
          <mxGeometry x="250" y="170" width="60" height="20" as="geometry" />
        </mxCell>
        <mxCell id="nzL9g1eNjnsppFl03VkQ-41" value="" style="curved=1;endArrow=classic;html=1;rounded=0;entryX=0.983;entryY=0.629;entryDx=0;entryDy=0;entryPerimeter=0;" edge="1" parent="1" target="nzL9g1eNjnsppFl03VkQ-26">
          <mxGeometry width="50" height="50" relative="1" as="geometry">
            <mxPoint x="205" y="280" as="sourcePoint" />
            <mxPoint x="255" y="230" as="targetPoint" />
            <Array as="points">
              <mxPoint x="230" y="290" />
              <mxPoint x="230" y="310" />
            </Array>
          </mxGeometry>
        </mxCell>
        <mxCell id="nzL9g1eNjnsppFl03VkQ-42" value="&lt;font style=&quot;font-size: 10px;&quot;&gt;filteredSession.add(session)&lt;/font&gt;" style="text;html=1;align=center;verticalAlign=middle;whiteSpace=wrap;rounded=0;" vertex="1" parent="1">
          <mxGeometry x="234" y="290" width="126" height="30" as="geometry" />
        </mxCell>
        <mxCell id="nzL9g1eNjnsppFl03VkQ-43" value="&lt;span style=&quot;color: rgb(0, 0, 0); font-family: Helvetica; font-style: normal; font-variant-ligatures: normal; font-variant-caps: normal; font-weight: 400; letter-spacing: normal; orphans: 2; text-align: center; text-indent: 0px; text-transform: none; widows: 2; word-spacing: 0px; -webkit-text-stroke-width: 0px; white-space: normal; background-color: rgb(251, 251, 251); text-decoration-thickness: initial; text-decoration-style: initial; text-decoration-color: initial; float: none; display: inline !important;&quot;&gt;&lt;font style=&quot;font-size: 12px;&quot;&gt;filteredSession&lt;/font&gt;&lt;/span&gt;" style="text;whiteSpace=wrap;html=1;" vertex="1" parent="1">
          <mxGeometry x="91.25" y="390" width="87.5" height="30" as="geometry" />
        </mxCell>
      </root>
    </mxGraphModel>
  </diagram>
</mxfile>
